name Walk9.mot
datacolumns 19
datarows 25
range 1.99300000 2.01700000
endheader

                time	   L_ground_force_vx	   L_ground_force_vy	   L_ground_force_vz	   L_ground_force_px	   L_ground_force_py	   L_ground_force_pz	   R_ground_force_vx	   R_ground_force_vy	   R_ground_force_vz	   R_ground_force_px	   R_ground_force_py	   R_ground_force_pz	   L_ground_torque_x	   L_ground_torque_y	   L_ground_torque_z	   R_ground_torque_x	   R_ground_torque_y	   R_ground_torque_z	
          1.99300000	          0.00000000	          0.00000000	          0.00000000	          0.00000000	          0.00000000	          0.00000000	        -22.82589027	        663.22392396	        -48.45565791	          0.15727762	          0.00000000	          0.06376309	          0.00000000	          0.00000000	          0.00000000	          0.00000000	          7.96950566	          0.00000000	
          1.99400000	          0.00000000	          0.00000000	          0.00000000	          0.00000000	          0.00000000	          0.00000000	        -22.35027084	        661.68353611	        -48.41293711	          0.15767731	          0.00000000	          0.06383664	          0.00000000	          0.00000000	          0.00000000	          0.00000000	          7.97509649	          0.00000000	
          1.99500000	          0.00000000	          0.00000000	          0.00000000	          0.00000000	          0.00000000	          0.00000000	        -21.89903766	        660.21936351	        -48.38142963	          0.15805604	          0.00000000	          0.06392534	          0.00000000	          0.00000000	          0.00000000	          0.00000000	          7.98002477	          0.00000000	
          1.99600000	          0.00000000	          0.00000000	          0.00000000	          0.00000000	          0.00000000	          0.00000000	        -21.47479522	        658.86111945	        -48.35586166	          0.15842148	          0.00000000	          0.06399817	          0.00000000	          0.00000000	          0.00000000	          0.00000000	          7.97904510	          0.00000000	
          1.99700000	          0.00000000	          0.00000000	          0.00000000	          0.00000000	          0.00000000	          0.00000000	        -21.06870343	        657.64911339	        -48.32583300	          0.15879311	          0.00000000	          0.06403737	          0.00000000	          0.00000000	          0.00000000	          0.00000000	          7.96532477	          0.00000000	
          1.99800000	          0.00000000	          0.00000000	          0.00000000	          0.00000000	          0.00000000	          0.00000000	        -20.66020826	        656.64366180	        -48.28215768	          0.15919454	          0.00000000	          0.06405891	          0.00000000	          0.00000000	          0.00000000	          0.00000000	          7.93690621	          0.00000000	
          1.99900000	          0.00000000	          0.00000000	          0.00000000	          0.00000000	          0.00000000	          0.00000000	        -20.22922966	        655.86772614	        -48.22434127	          0.15964422	          0.00000000	          0.06409821	          0.00000000	          0.00000000	          0.00000000	          0.00000000	          7.89761518	          0.00000000	
          2.00000000	          0.00000000	          0.00000000	          0.00000000	          0.00000000	          0.00000000	          0.00000000	        -19.77421621	        655.25998911	        -48.16055735	          0.16013840	          0.00000000	          0.06417660	          0.00000000	          0.00000000	          0.00000000	          0.00000000	          7.85258071	          0.00000000	
          2.00100000	          0.00000000	          0.00000000	          0.00000000	          0.00000000	          0.00000000	          0.00000000	        -19.31242107	        654.70294761	        -48.10112672	          0.16064821	          0.00000000	          0.06428555	          0.00000000	          0.00000000	          0.00000000	          0.00000000	          7.80763636	          0.00000000	
          2.00200000	          0.00000000	          0.00000000	          0.00000000	          0.00000000	          0.00000000	          0.00000000	        -18.86036316	        654.08555563	        -48.05285961	          0.16113248	          0.00000000	          0.06439151	          0.00000000	          0.00000000	          0.00000000	          0.00000000	          7.77104096	          0.00000000	
          2.00300000	          0.00000000	          0.00000000	          0.00000000	          0.00000000	          0.00000000	          0.00000000	        -18.42240486	        653.35461160	        -48.01888152	          0.16156064	          0.00000000	          0.06446161	          0.00000000	          0.00000000	          0.00000000	          0.00000000	          7.75060222	          0.00000000	
          2.00400000	          0.00000000	          0.00000000	          0.00000000	          0.00000000	          0.00000000	          0.00000000	        -17.99650923	        652.53159991	        -48.00138566	          0.16193526	          0.00000000	          0.06449199	          0.00000000	          0.00000000	          0.00000000	          0.00000000	          7.74827096	          0.00000000	
          2.00500000	          0.00000000	          0.00000000	          0.00000000	          0.00000000	          0.00000000	          0.00000000	        -17.57761787	        651.68545661	        -48.00240470	          0.16228343	          0.00000000	          0.06450757	          0.00000000	          0.00000000	          0.00000000	          0.00000000	          7.75964340	          0.00000000	
          2.00600000	          0.00000000	          0.00000000	          0.00000000	          0.00000000	          0.00000000	          0.00000000	        -17.15414025	        650.87817486	        -48.02260363	          0.16261674	          0.00000000	          0.06452939	          0.00000000	          0.00000000	          0.00000000	          0.00000000	          7.77851432	          0.00000000	
          2.00700000	          0.00000000	          0.00000000	          0.00000000	          0.00000000	          0.00000000	          0.00000000	        -16.71658116	        650.13427619	        -48.05921306	          0.16291612	          0.00000000	          0.06454691	          0.00000000	          0.00000000	          0.00000000	          0.00000000	          7.79790897	          0.00000000	
          2.00800000	          0.00000000	          0.00000000	          0.00000000	          0.00000000	          0.00000000	          0.00000000	        -16.27044866	        649.46076102	        -48.10225388	          0.16316180	          0.00000000	          0.06454067	          0.00000000	          0.00000000	          0.00000000	          0.00000000	          7.80761684	          0.00000000	
          2.00900000	          0.00000000	          0.00000000	          0.00000000	          0.00000000	          0.00000000	          0.00000000	        -15.82929820	        648.86875187	        -48.13444529	          0.16336237	          0.00000000	          0.06452191	          0.00000000	          0.00000000	          0.00000000	          0.00000000	          7.79789851	          0.00000000	
          2.01000000	          0.00000000	          0.00000000	          0.00000000	          0.00000000	          0.00000000	          0.00000000	        -15.40172337	        648.37015847	        -48.14113462	          0.16355513	          0.00000000	          0.06452636	          0.00000000	          0.00000000	          0.00000000	          0.00000000	          7.76734698	          0.00000000	
          2.01100000	          0.00000000	          0.00000000	          0.00000000	          0.00000000	          0.00000000	          0.00000000	        -14.99024586	        647.96774330	        -48.12145167	          0.16378770	          0.00000000	          0.06457793	          0.00000000	          0.00000000	          0.00000000	          0.00000000	          7.72389661	          0.00000000	
          2.01200000	          0.00000000	          0.00000000	          0.00000000	          0.00000000	          0.00000000	          0.00000000	        -14.59291716	        647.64782345	        -48.08674869	          0.16409322	          0.00000000	          0.06466724	          0.00000000	          0.00000000	          0.00000000	          0.00000000	          7.67727969	          0.00000000	
          2.01300000	          0.00000000	          0.00000000	          0.00000000	          0.00000000	          0.00000000	          0.00000000	        -14.20384651	        647.39493521	        -48.04981623	          0.16447299	          0.00000000	          0.06476352	          0.00000000	          0.00000000	          0.00000000	          0.00000000	          7.63056000	          0.00000000	
          2.01400000	          0.00000000	          0.00000000	          0.00000000	          0.00000000	          0.00000000	          0.00000000	        -13.81660870	        647.20779095	        -48.01799236	          0.16490110	          0.00000000	          0.06484587	          0.00000000	          0.00000000	          0.00000000	          0.00000000	          7.58006567	          0.00000000	
          2.01500000	          0.00000000	          0.00000000	          0.00000000	          0.00000000	          0.00000000	          0.00000000	        -13.42669967	        647.07776230	        -47.99125934	          0.16533500	          0.00000000	          0.06491276	          0.00000000	          0.00000000	          0.00000000	          0.00000000	          7.52438759	          0.00000000	
          2.01600000	          0.00000000	          0.00000000	          0.00000000	          0.00000000	          0.00000000	          0.00000000	        -13.03167126	        646.96948856	        -47.96420133	          0.16571985	          0.00000000	          0.06496188	          0.00000000	          0.00000000	          0.00000000	          0.00000000	          7.47048136	          0.00000000	
          2.01700000	          0.00000000	          0.00000000	          0.00000000	          0.00000000	          0.00000000	          0.00000000	        -12.63201272	        646.85041287	        -47.93622430	          0.16601362	          0.00000000	          0.06498396	          0.00000000	          0.00000000	          0.00000000	          0.00000000	          7.42977705	          0.00000000	
